<?xml version="1.0" encoding="UTF-8"?>
<svg id="Calque_2" data-name="Calque 2" xmlns="http://www.w3.org/2000/svg" viewBox="0 0 246 265.94">
  <defs>
    <style>
      .cls-1 {
        fill: #fff;
      }
    </style>
  </defs>
  <g id="OBJECTS">
    <path class="cls-1" d="m233.87,89.61c-1.8-3.73-6.28-5.29-10.01-3.5-3.73,1.8-5.3,6.28-3.5,10.01,7.06,14.66,10.65,30.41,10.65,46.82,0,59.55-48.45,108-108,108S15,202.49,15,142.94,63.45,34.94,123,34.94c11.71,0,23.13,1.84,34.06,5.48l-20.94,15.74,80.6.99L159.88,0l3.38,26.69c-12.91-4.48-26.41-6.75-40.26-6.75C55.18,19.94,0,75.12,0,142.94s55.18,123,123,123,123-55.18,123-123c0-18.68-4.08-36.62-12.13-53.33Z"/>
  </g>
</svg>