<?xml version="1.0" encoding="UTF-8"?>
<svg id="Calque_2" data-name="Calque 2" xmlns="http://www.w3.org/2000/svg" viewBox="0 0 285.5 219.5">
  <defs>
    <style>
      .cls-1 {
        fill: #fff;
      }
    </style>
  </defs>
  <g id="Calque_1-2" data-name="Calque 1">
    <path class="cls-1" d="m285.5,0c-18.64,12.98-44.8,26.97-65.88,32.26l28.94,7.72-74.3,106.81-61.18-111.4c-1.31-2.38-3.79-3.87-6.51-3.89h-.07c-2.69,0-5.17,1.44-6.51,3.77L.99,208.27c-2.06,3.6-.81,8.18,2.79,10.24,1.17.67,2.45.99,3.72.99,2.6,0,5.13-1.36,6.52-3.78L106.37,54.34l60.56,110.27c1.25,2.28,3.59,3.74,6.18,3.88,2.61.14,5.07-1.08,6.55-3.21l81.21-116.74,17.31,24.45c-2.37-21.6,1.65-51,7.33-72.99Z"/>
  </g>
</svg>