<?xml version="1.0" encoding="UTF-8"?>
<svg id="Calque_2" data-name="Calque 2" xmlns="http://www.w3.org/2000/svg" viewBox="0 0 259 259">
  <defs>
    <style>
      .cls-1 {
        fill: #fff;
      }
    </style>
  </defs>
  <g id="Calque_1-2" data-name="Calque 1">
    <g>
      <path class="cls-1" d="m129.5,0C58.09,0,0,58.09,0,129.5s58.09,129.5,129.5,129.5,129.5-58.09,129.5-129.5S200.91,0,129.5,0Zm0,244c-63.14,0-114.5-51.36-114.5-114.5S66.36,15,129.5,15s114.5,51.36,114.5,114.5-51.36,114.5-114.5,114.5Z"/>
      <path class="cls-1" d="m130.35,127.09v-56.59c0-4.14-3.36-7.5-7.5-7.5s-7.5,3.36-7.5,7.5v59.7c0,1.99.79,3.9,2.2,5.3l46.3,46.3c1.46,1.46,3.38,2.2,5.3,2.2s3.84-.73,5.3-2.2c2.93-2.93,2.93-7.68,0-10.61l-44.1-44.1Z"/>
    </g>
  </g>
</svg>